<?xml version="1.0" encoding="UTF-8"?><svg id="Layer_1" xmlns="http://www.w3.org/2000/svg" viewBox="0 0 168.57 62.82"><path d="M30.5,62.82C12.96,62.82,0,48.99,0,30.76S12.96,0,30.5,0h34.04v10.97H30.5c-11.23,0-19.53,8.38-19.53,20.31s8.21,20.57,19.53,20.57h26.87v-16.33h-28.34v-9.25h39.4v36.55H30.5Z"/><path d="M79.14,62.82V0h10.97v62.82h-10.97Z"/><path d="M101.6,62.82V0h36.38c17.71,0,30.59,12.53,30.59,30.76s-12.87,32.06-30.59,32.06h-36.38ZM137.98,51.84c11.32,0,19.61-8.73,19.61-20.57s-8.29-20.31-19.61-20.31h-25.49v40.87h25.49Z"/></svg>